<mxfile host="app.diagrams.net" modified="2023-11-27T09:44:53.956Z" agent="Mozilla/5.0 (Linux; arm_64; Android 13; M2101K7BNY) AppleWebKit/537.36 (KHTML, like Gecko) Chrome/118.0.5993.105 YaBrowser/23.11.1.105.00 SA/3 Mobile Safari/537.36" version="22.1.4" etag="pBK_0NmGzmeMJqIfO1IM" type="github">
  <diagram name="Страница — 1" id="RAXgibXXw0VcM6ZDFO5U">
    <mxGraphModel>
      <root>
        <mxCell id="0" />
        <mxCell id="1" parent="0" />
      </root>
    </mxGraphModel>
  </diagram>
</mxfile>
